<svg width="16" height="16" viewBox="0 0 16 16" fill="#fff" xmlns="http://www.w3.org/2000/svg">
  <rect x="0.25" y="0.25" width="15.5" height="15.5" rx="7.75" stroke="#0B1F1C" stroke-opacity="0.16" stroke-width="0.5" class="circle"/>
  <path d="M8.32548 7.92383C8.32553 7.76963 8.38682 7.62177 8.49588 7.51277L8.56743 7.44123C8.57384 7.43482 8.57892 7.42722 8.58239 7.41885C8.58586 7.41048 8.58765 7.40151 8.58765 7.39244C8.58765 7.38338 8.58586 7.37441 8.58239 7.36604C8.57892 7.35767 8.57384 7.35007 8.56743 7.34366L8.43735 7.21358C8.43094 7.20717 8.42334 7.20209 8.41497 7.19862C8.4066 7.19515 8.39763 7.19336 8.38856 7.19336C8.3795 7.19336 8.37053 7.19515 8.36216 7.19862C8.35379 7.20209 8.34619 7.20717 8.33978 7.21358L8.27214 7.28513C8.16314 7.39419 8.01528 7.45548 7.86109 7.45553H7.61523C7.46104 7.45548 7.31318 7.39419 7.20418 7.28513L7.13263 7.21358C7.12623 7.20717 7.11862 7.20209 7.11025 7.19862C7.10188 7.19515 7.09291 7.19336 7.08385 7.19336C7.07479 7.19336 7.06582 7.19515 7.05745 7.19862C7.04908 7.20209 7.04147 7.20717 7.03507 7.21358L6.90499 7.34366C6.89858 7.35007 6.89349 7.35767 6.89002 7.36604C6.88655 7.37441 6.88477 7.38338 6.88477 7.39244C6.88477 7.40151 6.88655 7.41048 6.89002 7.41885C6.89349 7.42722 6.89858 7.43482 6.90499 7.44123L6.97653 7.51277C7.08559 7.62177 7.14689 7.76963 7.14694 7.92383V8.16968C7.14811 8.24663 7.134 8.32305 7.10542 8.3945C7.07684 8.46596 7.03436 8.53103 6.98044 8.58594L6.90889 8.65749C6.90248 8.66389 6.89739 8.67149 6.89392 8.67986C6.89045 8.68823 6.88867 8.6972 6.88867 8.70627C6.88867 8.71533 6.89045 8.7243 6.89392 8.73267C6.89739 8.74104 6.90248 8.74864 6.90889 8.75505L7.03897 8.88513C7.04538 8.89154 7.05298 8.89662 7.06135 8.90009C7.06972 8.90356 7.07869 8.90535 7.08775 8.90535C7.09681 8.90535 7.10579 8.90356 7.11416 8.90009C7.12253 8.89662 7.13013 8.89154 7.13653 8.88513L7.20808 8.81358C7.31708 8.70453 7.46494 8.64323 7.61913 8.64318H7.86499C8.01918 8.64323 8.16704 8.70453 8.27604 8.81358L8.34759 8.88513C8.35399 8.89154 8.3616 8.89662 8.36997 8.90009C8.37834 8.90356 8.38731 8.90535 8.39637 8.90535C8.40543 8.90535 8.4144 8.90356 8.42277 8.90009C8.43114 8.89662 8.43875 8.89154 8.44515 8.88513L8.57523 8.75505C8.58164 8.74864 8.58673 8.74104 8.5902 8.73267C8.59367 8.7243 8.59545 8.71533 8.59545 8.70627C8.59545 8.6972 8.59367 8.68823 8.5902 8.67986C8.58673 8.67149 8.58164 8.66389 8.57523 8.65749L8.49588 8.58594C8.38682 8.47694 8.32553 8.32908 8.32548 8.17488V7.92383Z" fill="#0EFF85"/>
  <path d="M10.9794 4.73131H9.95041C9.94392 4.73131 9.93749 4.73259 9.9315 4.73507C9.9255 4.73756 9.92005 4.7412 9.91546 4.74579C9.91087 4.75038 9.90723 4.75583 9.90474 4.76183C9.90226 4.76782 9.90098 4.77425 9.90098 4.78074V5.48188C9.90098 5.49007 9.8984 5.49805 9.89362 5.5047C9.88883 5.51134 9.88207 5.51631 9.8743 5.5189C9.86653 5.52149 9.85814 5.52157 9.85032 5.51913C9.8425 5.51669 9.83565 5.51185 9.83074 5.5053C9.63562 5.28156 9.02033 4.59473 7.68049 4.59473C6.41871 4.59473 4.50781 5.5183 4.50781 7.95603C4.50781 10.529 6.2483 11.5437 7.68049 11.5437C9.19334 11.5437 9.69675 10.6331 9.82814 10.3391C9.84505 10.3014 9.90098 10.3196 9.90098 10.3599V11.3433C9.90098 11.3565 9.90619 11.369 9.91546 11.3783C9.92473 11.3876 9.9373 11.3928 9.95041 11.3928H10.9807C10.9935 11.3924 11.0058 11.3871 11.0148 11.3778C11.0238 11.3686 11.0288 11.3562 11.0288 11.3433V4.78074C11.0288 4.77425 11.0275 4.76782 11.025 4.76183C11.0225 4.75583 11.0189 4.75038 11.0143 4.74579C11.0097 4.7412 11.0043 4.73756 10.9983 4.73507C10.9923 4.73259 10.9858 4.73131 10.9794 4.73131ZM7.67919 10.5368C6.5683 10.5368 5.64993 9.62627 5.64993 7.95343C5.64993 6.57586 6.43822 5.59375 7.67919 5.59375C9.06326 5.59375 9.86846 6.54464 9.86846 7.95082C9.86846 9.5105 9.1309 10.5368 7.67919 10.5368Z" fill="#004037" class="mark"/>
</svg>
