<svg width="14" height="20" viewBox="0 0 14 20" fill="none" xmlns="http://www.w3.org/2000/svg">
<path d="M7 0C3.13401 0 0 3.09403 0 6.9107C0 9.32937 1.25859 11.4578 3.16447 12.6926C3.58139 12.9627 3.90509 13.3795 4.0021 13.8836L4.22023 15.0171C4.36682 15.7788 5.25961 16 6 16H8C8.74785 16 9.62822 15.768 9.76693 14.9967L9.97915 13.8166C10.063 13.3506 10.3391 12.9522 10.7051 12.6742C12.0675 11.6397 14 9.53596 14 6.9107C14 3.09403 10.866 0 7 0Z" fill="#E38800"/>
<path d="M7 20C8.50726 20 9.07982 19.5864 9.26109 18.7705C9.35864 18.3314 8.92955 17.5 8.5 17.5H5.5C5.07045 17.5 4.64136 18.3314 4.73891 18.7705C4.92018 19.5864 5.49274 20 7 20Z" fill="#E38800"/>
</svg>
